<mxfile host="app.diagrams.net" agent="Mozilla/5.0 (Windows NT 10.0; Win64; x64) AppleWebKit/537.36 (KHTML, like Gecko) Chrome/129.0.0.0 Safari/537.36 Edg/129.0.0.0" version="24.7.17">
  <diagram name="Page-1" id="q4GyPudHyguTaXcDcEiX">
    <mxGraphModel dx="3540" dy="2148" grid="1" gridSize="10" guides="1" tooltips="1" connect="1" arrows="1" fold="1" page="1" pageScale="1" pageWidth="850" pageHeight="1100" math="0" shadow="0">
      <root>
        <mxCell id="0" />
        <mxCell id="1" parent="0" />
        <mxCell id="UYaI8UpyeC8IPexVpfqV-24" value="Requestor click on the link.&#xa;" style="curved=1;startArrow=none;endArrow=block;exitX=0.5;exitY=0.99;entryX=0.5;entryY=0;entryDx=0;entryDy=0;" parent="1" target="UYaI8UpyeC8IPexVpfqV-36" edge="1">
          <mxGeometry x="0.0478" relative="1" as="geometry">
            <Array as="points" />
            <mxPoint x="193" y="57" as="sourcePoint" />
            <mxPoint x="192.5" y="129" as="targetPoint" />
            <mxPoint as="offset" />
          </mxGeometry>
        </mxCell>
        <mxCell id="UYaI8UpyeC8IPexVpfqV-25" value="" style="shape=umlActor;verticalLabelPosition=bottom;verticalAlign=top;html=1;outlineConnect=0;fillColor=#0050ef;strokeColor=#001DBC;fontColor=#ffffff;" parent="1" vertex="1">
          <mxGeometry x="176.5" width="30" height="60" as="geometry" />
        </mxCell>
        <mxCell id="UYaI8UpyeC8IPexVpfqV-26" value="The requestor can access and fill out the questionnaire. They can also forward the form link, but they remain the only contact for the request." style="whiteSpace=wrap;html=1;aspect=fixed;fillColor=#cce5ff;strokeColor=#36393d;" parent="1" vertex="1">
          <mxGeometry x="122.75" y="570" width="120" height="120" as="geometry" />
        </mxCell>
        <mxCell id="UYaI8UpyeC8IPexVpfqV-27" value="Requestor can save answers and come back to edit the form" style="whiteSpace=wrap;html=1;aspect=fixed;fillColor=#cce5ff;strokeColor=#36393d;" parent="1" vertex="1">
          <mxGeometry x="142.75" y="728" width="80" height="80" as="geometry" />
        </mxCell>
        <mxCell id="UYaI8UpyeC8IPexVpfqV-28" style="edgeStyle=orthogonalEdgeStyle;rounded=0;orthogonalLoop=1;jettySize=auto;html=1;" parent="1" source="UYaI8UpyeC8IPexVpfqV-30" target="UYaI8UpyeC8IPexVpfqV-88" edge="1">
          <mxGeometry relative="1" as="geometry" />
        </mxCell>
        <mxCell id="UYaI8UpyeC8IPexVpfqV-29" value="&lt;div style=&quot;background-color: rgb(251, 251, 251);&quot;&gt;The requestor’s answers are saved in the&amp;nbsp;&lt;/div&gt;&lt;div style=&quot;background-color: rgb(251, 251, 251);&quot;&gt;&lt;strong&gt;Negotiation Table.&lt;/strong&gt;&lt;/div&gt;" style="edgeLabel;html=1;align=center;verticalAlign=middle;resizable=0;points=[];" parent="UYaI8UpyeC8IPexVpfqV-28" connectable="0" vertex="1">
          <mxGeometry x="-0.2012" y="-2" relative="1" as="geometry">
            <mxPoint as="offset" />
          </mxGeometry>
        </mxCell>
        <mxCell id="UYaI8UpyeC8IPexVpfqV-30" value="Requestor submit the form" style="whiteSpace=wrap;html=1;aspect=fixed;fillColor=#cce5ff;strokeColor=#36393d;" parent="1" vertex="1">
          <mxGeometry x="144.5" y="880" width="80" height="80" as="geometry" />
        </mxCell>
        <mxCell id="UYaI8UpyeC8IPexVpfqV-31" value="" style="endArrow=classic;html=1;rounded=0;exitX=0.5;exitY=1;exitDx=0;exitDy=0;entryX=0.5;entryY=0;entryDx=0;entryDy=0;" parent="1" source="UYaI8UpyeC8IPexVpfqV-26" target="UYaI8UpyeC8IPexVpfqV-27" edge="1">
          <mxGeometry width="50" height="50" relative="1" as="geometry">
            <mxPoint x="191.5" y="610" as="sourcePoint" />
            <mxPoint x="212" y="550" as="targetPoint" />
          </mxGeometry>
        </mxCell>
        <mxCell id="UYaI8UpyeC8IPexVpfqV-32" value="DRT will retrieve the questionnaire based on the SAID and show it in UI." style="edgeLabel;html=1;align=center;verticalAlign=middle;resizable=0;points=[];" parent="UYaI8UpyeC8IPexVpfqV-31" connectable="0" vertex="1">
          <mxGeometry x="-0.0767" y="-2" relative="1" as="geometry">
            <mxPoint as="offset" />
          </mxGeometry>
        </mxCell>
        <mxCell id="UYaI8UpyeC8IPexVpfqV-33" value="" style="endArrow=classic;html=1;rounded=0;entryX=0.5;entryY=0;entryDx=0;entryDy=0;exitX=0.5;exitY=1;exitDx=0;exitDy=0;" parent="1" source="UYaI8UpyeC8IPexVpfqV-27" target="UYaI8UpyeC8IPexVpfqV-30" edge="1">
          <mxGeometry width="50" height="50" relative="1" as="geometry">
            <mxPoint x="173" y="806.21" as="sourcePoint" />
            <mxPoint x="223" y="756.21" as="targetPoint" />
          </mxGeometry>
        </mxCell>
        <mxCell id="UYaI8UpyeC8IPexVpfqV-34" value="DRT will save the JSON object of the answers in the Negotiation table.&lt;div&gt;&lt;div&gt;Each submission and saving should create a&lt;/div&gt;&lt;div&gt;&amp;nbsp;negotiation entry.(the pre-filled should be editable)&lt;/div&gt;&lt;/div&gt;" style="edgeLabel;html=1;align=center;verticalAlign=middle;resizable=0;points=[];" parent="UYaI8UpyeC8IPexVpfqV-33" connectable="0" vertex="1">
          <mxGeometry x="-0.1142" y="-1" relative="1" as="geometry">
            <mxPoint as="offset" />
          </mxGeometry>
        </mxCell>
        <mxCell id="UYaI8UpyeC8IPexVpfqV-35" value="REQUESTOR" style="text;html=1;align=center;verticalAlign=middle;resizable=0;points=[];autosize=1;strokeColor=none;fillColor=none;" parent="1" vertex="1">
          <mxGeometry x="141.5" y="-30" width="100" height="30" as="geometry" />
        </mxCell>
        <mxCell id="UYaI8UpyeC8IPexVpfqV-36" value="DRT read the &quot;&lt;b&gt;Link table&lt;/b&gt;&quot; from the cache, fetch the owner-ID, SAID, and License-ID put them in the &quot;&lt;b&gt;NLink table&lt;/b&gt;&quot;.&lt;div&gt;&lt;br&gt;&lt;div&gt;DRT will generate unique links for owner and store it in the &quot;&lt;b&gt;NLink table&lt;/b&gt;&quot;.&lt;/div&gt;&lt;/div&gt;" style="whiteSpace=wrap;html=1;aspect=fixed;fillColor=#ffcccc;strokeColor=#36393d;" parent="1" vertex="1">
          <mxGeometry x="113.75" y="100" width="160" height="160" as="geometry" />
        </mxCell>
        <mxCell id="UYaI8UpyeC8IPexVpfqV-37" value="DRT will send the filled questionnaire&#39;s link to owner by email" style="whiteSpace=wrap;html=1;aspect=fixed;fillColor=#ffcccc;strokeColor=#36393d;" parent="1" vertex="1">
          <mxGeometry x="147.25" y="1340" width="90" height="90" as="geometry" />
        </mxCell>
        <mxCell id="UYaI8UpyeC8IPexVpfqV-38" value="" style="shape=umlActor;verticalLabelPosition=bottom;verticalAlign=top;html=1;outlineConnect=0;fillColor=#6d8764;fontColor=#ffffff;strokeColor=#3A5431;" parent="1" vertex="1">
          <mxGeometry x="177.25" y="1460" width="30" height="60" as="geometry" />
        </mxCell>
        <mxCell id="UYaI8UpyeC8IPexVpfqV-39" value="" style="endArrow=classic;html=1;rounded=0;exitX=0.5;exitY=1;exitDx=0;exitDy=0;" parent="1" source="UYaI8UpyeC8IPexVpfqV-37" target="UYaI8UpyeC8IPexVpfqV-38" edge="1">
          <mxGeometry width="50" height="50" relative="1" as="geometry">
            <mxPoint x="200" y="1440" as="sourcePoint" />
            <mxPoint x="189" y="1450" as="targetPoint" />
          </mxGeometry>
        </mxCell>
        <mxCell id="UYaI8UpyeC8IPexVpfqV-40" value="" style="endArrow=classic;html=1;rounded=0;entryX=0.427;entryY=-0.018;entryDx=0;entryDy=0;entryPerimeter=0;" parent="1" source="UYaI8UpyeC8IPexVpfqV-38" target="UYaI8UpyeC8IPexVpfqV-58" edge="1">
          <mxGeometry width="50" height="50" relative="1" as="geometry">
            <mxPoint x="137.25" y="1520" as="sourcePoint" />
            <mxPoint x="188.74999999999977" y="1510" as="targetPoint" />
            <Array as="points" />
          </mxGeometry>
        </mxCell>
        <mxCell id="UYaI8UpyeC8IPexVpfqV-41" value="&lt;div&gt;Owner receives reminder to review data request.&lt;/div&gt;" style="edgeLabel;html=1;align=center;verticalAlign=middle;resizable=0;points=[];" parent="UYaI8UpyeC8IPexVpfqV-40" vertex="1" connectable="0">
          <mxGeometry x="-0.2061" y="1" relative="1" as="geometry">
            <mxPoint x="2" y="6" as="offset" />
          </mxGeometry>
        </mxCell>
        <mxCell id="UYaI8UpyeC8IPexVpfqV-42" value="OWNER" style="text;html=1;align=center;verticalAlign=middle;resizable=0;points=[];autosize=1;strokeColor=none;fillColor=none;" parent="1" vertex="1">
          <mxGeometry x="158.75" y="1475" width="70" height="30" as="geometry" />
        </mxCell>
        <mxCell id="UYaI8UpyeC8IPexVpfqV-43" value="After&#xa; submission" style="rhombus;strokeWidth=2;whiteSpace=wrap;fillColor=#cdeb8b;strokeColor=#36393d;" parent="1" vertex="1">
          <mxGeometry x="147.25" y="1760" width="95" height="95" as="geometry" />
        </mxCell>
        <mxCell id="UYaI8UpyeC8IPexVpfqV-44" value="-Ask for more information&#xa;-leave comments and feedback&#xa;&#xa;DRT sends a notification &#xa;to the requestor,&#xa; prompting them to fill out &#xa;the requested clarifications.&#xa;&#xa;The requestor receives weekly reminders that&#xa; they have outstanding information to supply.&#xa;requestor can cancel the request(in the negotiation table/&#xa;the owner can be notified)&#xa; (or delay reminder(for later development))." style="curved=1;startArrow=none;endArrow=block;entryX=0;entryY=0.5;entryDx=0;entryDy=0;exitX=0;exitY=0.5;exitDx=0;exitDy=0;" parent="1" source="UYaI8UpyeC8IPexVpfqV-43" target="UYaI8UpyeC8IPexVpfqV-26" edge="1">
          <mxGeometry x="0.3241" y="2" relative="1" as="geometry">
            <Array as="points">
              <mxPoint x="20" y="1590" />
              <mxPoint x="-10" y="1410" />
              <mxPoint x="-70" y="990" />
              <mxPoint x="-50" y="690" />
              <mxPoint x="40" y="660" />
            </Array>
            <mxPoint x="150" y="1380" as="sourcePoint" />
            <mxPoint x="-30" y="630" as="targetPoint" />
            <mxPoint as="offset" />
          </mxGeometry>
        </mxCell>
        <mxCell id="UYaI8UpyeC8IPexVpfqV-45" value="The form is pre-filled with&lt;div&gt;&amp;nbsp;their previous answers,&amp;nbsp;&lt;/div&gt;&lt;div&gt;and only the fields requiring&lt;/div&gt;&lt;div&gt;&amp;nbsp;clarification are editable.&lt;/div&gt;" style="edgeLabel;html=1;align=center;verticalAlign=middle;resizable=0;points=[];" parent="UYaI8UpyeC8IPexVpfqV-44" connectable="0" vertex="1">
          <mxGeometry x="-0.1191" y="-5" relative="1" as="geometry">
            <mxPoint x="-37" y="-139" as="offset" />
          </mxGeometry>
        </mxCell>
        <mxCell id="UYaI8UpyeC8IPexVpfqV-46" value="" style="endArrow=classic;html=1;rounded=0;entryX=0.5;entryY=0;entryDx=0;entryDy=0;exitX=0.5;exitY=1;exitDx=0;exitDy=0;" parent="1" source="UYaI8UpyeC8IPexVpfqV-43" target="UYaI8UpyeC8IPexVpfqV-48" edge="1">
          <mxGeometry width="50" height="50" relative="1" as="geometry">
            <mxPoint x="192" y="1900" as="sourcePoint" />
            <mxPoint x="190" y="1976" as="targetPoint" />
          </mxGeometry>
        </mxCell>
        <mxCell id="UYaI8UpyeC8IPexVpfqV-47" value="ACCEPT!&lt;div&gt;The negotiation is marked as &lt;strong&gt;completed&lt;/strong&gt;,&amp;nbsp;&lt;/div&gt;&lt;div&gt;and no further changes can be made.&lt;br&gt;&lt;div&gt;Owner generates an unsigned license agreement.&lt;/div&gt;&lt;/div&gt;" style="edgeLabel;html=1;align=center;verticalAlign=middle;resizable=0;points=[];" parent="UYaI8UpyeC8IPexVpfqV-46" connectable="0" vertex="1">
          <mxGeometry x="-0.056" y="2" relative="1" as="geometry">
            <mxPoint as="offset" />
          </mxGeometry>
        </mxCell>
        <mxCell id="UYaI8UpyeC8IPexVpfqV-48" value="&lt;div&gt;The selected license, auto-fills it with questionnaire answers, generates an editable document,&lt;/div&gt;&lt;div&gt;email it to the owner. and then both parties sign the agreement outside the system.&lt;/div&gt;&lt;div&gt;&lt;br&gt;&lt;/div&gt;DRT will email the license to owner.&amp;nbsp;&lt;div&gt;&lt;div&gt;When the owner generates the license that is filled in&lt;span style=&quot;background-color: initial;&quot;&gt;&amp;nbsp;with answers from the requestor, the email to&amp;nbsp;&lt;/span&gt;&lt;span style=&quot;background-color: initial;&quot;&gt;&amp;nbsp;the owner includes the email address of the requestor&amp;nbsp;&lt;/span&gt;&lt;span style=&quot;background-color: initial;&quot;&gt;&amp;nbsp;as well as attached the license agreement that needs to be signed.&lt;/span&gt;&lt;/div&gt;&lt;/div&gt;" style="whiteSpace=wrap;html=1;aspect=fixed;fillColor=#ffcccc;strokeColor=#36393d;" parent="1" vertex="1">
          <mxGeometry x="83.75" y="1940" width="220" height="220" as="geometry" />
        </mxCell>
        <mxCell id="UYaI8UpyeC8IPexVpfqV-49" value="-questionnaire SAID&lt;div&gt;-license&lt;/div&gt;&lt;div&gt;-ownerID&lt;/div&gt;&lt;div&gt;-data tags&lt;/div&gt;&lt;div&gt;&lt;b&gt;-link&lt;/b&gt;&lt;/div&gt;&lt;div&gt;&lt;span style=&quot;background-color: initial;&quot;&gt;&amp;nbsp;are stored in the Data Store.&lt;/span&gt;&lt;/div&gt;" style="whiteSpace=wrap;html=1;aspect=fixed;fillColor=#b0e3e6;strokeColor=#0e8088;" parent="1" vertex="1">
          <mxGeometry x="-260" y="-10" width="120" height="120" as="geometry" />
        </mxCell>
        <mxCell id="UYaI8UpyeC8IPexVpfqV-50" style="edgeStyle=orthogonalEdgeStyle;rounded=0;orthogonalLoop=1;jettySize=auto;html=1;entryX=0.5;entryY=0;entryDx=0;entryDy=0;" parent="1" source="UYaI8UpyeC8IPexVpfqV-51" target="UYaI8UpyeC8IPexVpfqV-80" edge="1">
          <mxGeometry relative="1" as="geometry" />
        </mxCell>
        <mxCell id="UYaI8UpyeC8IPexVpfqV-51" value="OWNER" style="shape=umlActor;verticalLabelPosition=bottom;verticalAlign=top;html=1;outlineConnect=0;fillColor=#6d8764;fontColor=#ffffff;strokeColor=#3A5431;" parent="1" vertex="1">
          <mxGeometry x="-540" width="30" height="60" as="geometry" />
        </mxCell>
        <mxCell id="UYaI8UpyeC8IPexVpfqV-52" value="OWNER" style="text;html=1;align=center;verticalAlign=middle;resizable=0;points=[];autosize=1;strokeColor=none;fillColor=none;" parent="1" vertex="1">
          <mxGeometry x="-560" y="-30" width="70" height="30" as="geometry" />
        </mxCell>
        <mxCell id="UYaI8UpyeC8IPexVpfqV-53" value="" style="endArrow=classic;html=1;rounded=0;entryX=-0.032;entryY=0.425;entryDx=0;entryDy=0;entryPerimeter=0;" parent="1" target="UYaI8UpyeC8IPexVpfqV-49" edge="1">
          <mxGeometry width="50" height="50" relative="1" as="geometry">
            <mxPoint x="-510" y="40" as="sourcePoint" />
            <mxPoint x="-295" y="40" as="targetPoint" />
          </mxGeometry>
        </mxCell>
        <mxCell id="UYaI8UpyeC8IPexVpfqV-54" value="&lt;div style=&quot;background-color: rgb(251, 251, 251);&quot;&gt;Owners manually add links&lt;/div&gt;&lt;div style=&quot;background-color: rgb(251, 251, 251);&quot;&gt;&amp;nbsp;generated by DRT&lt;/div&gt;&lt;div style=&quot;background-color: rgb(251, 251, 251);&quot;&gt;&amp;nbsp;to this table&amp;nbsp;&lt;/div&gt;&lt;div style=&quot;background-color: rgb(251, 251, 251);&quot;&gt;(or an admin can manage it).&amp;nbsp;&lt;/div&gt;&lt;div style=&quot;background-color: rgb(251, 251, 251);&quot;&gt;Each link is associated&lt;/div&gt;&lt;div style=&quot;background-color: rgb(251, 251, 251);&quot;&gt;&amp;nbsp;with an owner’s&lt;/div&gt;&lt;div style=&quot;background-color: rgb(251, 251, 251);&quot;&gt;&amp;nbsp;email and the questionnaire schema&lt;/div&gt;" style="edgeLabel;html=1;align=center;verticalAlign=middle;resizable=0;points=[];" parent="UYaI8UpyeC8IPexVpfqV-53" connectable="0" vertex="1">
          <mxGeometry x="-0.0229" y="1" relative="1" as="geometry">
            <mxPoint as="offset" />
          </mxGeometry>
        </mxCell>
        <mxCell id="UYaI8UpyeC8IPexVpfqV-55" value="" style="endArrow=classic;html=1;rounded=0;exitX=1;exitY=0.5;exitDx=0;exitDy=0;" parent="1" source="UYaI8UpyeC8IPexVpfqV-49" edge="1">
          <mxGeometry width="50" height="50" relative="1" as="geometry">
            <mxPoint x="-200" y="150" as="sourcePoint" />
            <mxPoint x="170" y="50" as="targetPoint" />
          </mxGeometry>
        </mxCell>
        <mxCell id="UYaI8UpyeC8IPexVpfqV-56" value="The requestor either finds the link&amp;nbsp;&lt;div&gt;to the questionnaire on a website&amp;nbsp;&lt;div&gt;or receives it from someone.&lt;/div&gt;&lt;div&gt;&amp;nbsp;Alternatively, the requestor contacts&amp;nbsp;&lt;/div&gt;&lt;div&gt;the data owner, who provides the link.&lt;br&gt;&lt;/div&gt;&lt;/div&gt;" style="edgeLabel;html=1;align=center;verticalAlign=middle;resizable=0;points=[];" parent="UYaI8UpyeC8IPexVpfqV-55" connectable="0" vertex="1">
          <mxGeometry x="-0.2483" relative="1" as="geometry">
            <mxPoint x="18" as="offset" />
          </mxGeometry>
        </mxCell>
        <mxCell id="UYaI8UpyeC8IPexVpfqV-57" style="edgeStyle=orthogonalEdgeStyle;rounded=0;orthogonalLoop=1;jettySize=auto;html=1;entryX=0.5;entryY=0;entryDx=0;entryDy=0;" parent="1" source="UYaI8UpyeC8IPexVpfqV-58" target="UYaI8UpyeC8IPexVpfqV-43" edge="1">
          <mxGeometry relative="1" as="geometry">
            <Array as="points">
              <mxPoint x="190" y="1590" />
              <mxPoint x="192" y="1590" />
            </Array>
          </mxGeometry>
        </mxCell>
        <mxCell id="UYaI8UpyeC8IPexVpfqV-58" value="The data owner can forward the review link, close, or reject the data request.&amp;nbsp;&lt;div&gt;Reviews can be saved or submitted.&lt;div&gt;&lt;/div&gt;&lt;/div&gt;&lt;div&gt;The owner can leave comment question by question.&lt;/div&gt;" style="whiteSpace=wrap;html=1;aspect=fixed;fillColor=#cdeb8b;strokeColor=#36393d;" parent="1" vertex="1">
          <mxGeometry x="135.25" y="1570" width="130" height="130" as="geometry" />
        </mxCell>
        <mxCell id="UYaI8UpyeC8IPexVpfqV-59" value="&lt;font style=&quot;font-size: 20px;&quot;&gt;DRT system work flow&lt;/font&gt;&lt;div&gt;&lt;span style=&quot;font-size: 20px;&quot;&gt;by: Setayesh Sanavi&lt;/span&gt;&lt;/div&gt;" style="ellipse;shape=cloud;whiteSpace=wrap;html=1;fillColor=#f8cecc;strokeColor=#b85450;gradientColor=#ea6b66;" parent="1" vertex="1">
          <mxGeometry x="-331.25" y="-320" width="430" height="210" as="geometry" />
        </mxCell>
        <mxCell id="UYaI8UpyeC8IPexVpfqV-60" value="" style="endArrow=classic;html=1;rounded=0;exitX=0.5;exitY=1;exitDx=0;exitDy=0;entryX=0.5;entryY=0;entryDx=0;entryDy=0;" parent="1" source="UYaI8UpyeC8IPexVpfqV-48" target="UYaI8UpyeC8IPexVpfqV-63" edge="1">
          <mxGeometry width="50" height="50" relative="1" as="geometry">
            <mxPoint x="71.75" y="1910" as="sourcePoint" />
            <mxPoint x="188.75" y="2240" as="targetPoint" />
          </mxGeometry>
        </mxCell>
        <mxCell id="UYaI8UpyeC8IPexVpfqV-61" value="Once a negotiation is completed and no longer active,&amp;nbsp;&lt;div&gt;it can be &lt;strong&gt;archived&lt;/strong&gt; to free up space&lt;/div&gt;&lt;div&gt;&amp;nbsp;in the active negotiation storage.&lt;/div&gt;" style="edgeLabel;html=1;align=center;verticalAlign=middle;resizable=0;points=[];" parent="UYaI8UpyeC8IPexVpfqV-60" connectable="0" vertex="1">
          <mxGeometry x="-0.0773" y="1" relative="1" as="geometry">
            <mxPoint as="offset" />
          </mxGeometry>
        </mxCell>
        <mxCell id="UYaI8UpyeC8IPexVpfqV-62" style="edgeStyle=orthogonalEdgeStyle;rounded=0;orthogonalLoop=1;jettySize=auto;html=1;entryX=0.5;entryY=0;entryDx=0;entryDy=0;" parent="1" source="UYaI8UpyeC8IPexVpfqV-63" target="UYaI8UpyeC8IPexVpfqV-66" edge="1">
          <mxGeometry relative="1" as="geometry" />
        </mxCell>
        <mxCell id="UYaI8UpyeC8IPexVpfqV-63" value="After the negotiation is archived or completed or canceled, DRT exports the anonymized &lt;strong&gt;summary statistics file&lt;/strong&gt; for that owner to the &lt;strong&gt;DRT-DS (GitHub)&lt;/strong&gt;" style="whiteSpace=wrap;html=1;aspect=fixed;fillColor=#ffcccc;strokeColor=#36393d;" parent="1" vertex="1">
          <mxGeometry x="125.25" y="2251.76" width="140" height="140" as="geometry" />
        </mxCell>
        <mxCell id="UYaI8UpyeC8IPexVpfqV-64" value="" style="curved=1;endArrow=classic;html=1;rounded=0;exitX=1;exitY=0.5;exitDx=0;exitDy=0;entryX=1;entryY=0.5;entryDx=0;entryDy=0;" parent="1" source="UYaI8UpyeC8IPexVpfqV-43" target="UYaI8UpyeC8IPexVpfqV-63" edge="1">
          <mxGeometry width="50" height="50" relative="1" as="geometry">
            <mxPoint x="310" y="1800" as="sourcePoint" />
            <mxPoint x="360" y="1750" as="targetPoint" />
            <Array as="points">
              <mxPoint x="430" y="1920" />
              <mxPoint x="380" y="2140" />
            </Array>
          </mxGeometry>
        </mxCell>
        <mxCell id="UYaI8UpyeC8IPexVpfqV-65" value="REJECT!" style="edgeLabel;html=1;align=center;verticalAlign=middle;resizable=0;points=[];" parent="UYaI8UpyeC8IPexVpfqV-64" connectable="0" vertex="1">
          <mxGeometry x="0.0187" y="-7" relative="1" as="geometry">
            <mxPoint x="-1" as="offset" />
          </mxGeometry>
        </mxCell>
        <mxCell id="UYaI8UpyeC8IPexVpfqV-66" value="If the requestor requests data deletion, the negotiation files can be deleted, but anonymized summary statistics are retained.&amp;nbsp;&lt;div&gt;&lt;br&gt;&lt;/div&gt;&lt;div&gt;As an alternative, a rolling one-month deletion window could be used for accepted, canceled, or rejected requests instead of this feature.&lt;br&gt;&lt;/div&gt;" style="whiteSpace=wrap;html=1;aspect=fixed;fillColor=#ffcccc;strokeColor=#36393d;" parent="1" vertex="1">
          <mxGeometry x="105.63" y="2461.76" width="178.24" height="178.24" as="geometry" />
        </mxCell>
        <mxCell id="UYaI8UpyeC8IPexVpfqV-67" value="" style="edgeStyle=orthogonalEdgeStyle;rounded=0;orthogonalLoop=1;jettySize=auto;html=1;" parent="1" source="UYaI8UpyeC8IPexVpfqV-68" target="UYaI8UpyeC8IPexVpfqV-73" edge="1">
          <mxGeometry relative="1" as="geometry" />
        </mxCell>
        <mxCell id="UYaI8UpyeC8IPexVpfqV-68" value="&lt;font color=&quot;#000000&quot;&gt;OWNER&lt;/font&gt;" style="shape=umlActor;verticalLabelPosition=bottom;verticalAlign=top;html=1;outlineConnect=0;fillColor=#6D8764;fontColor=#ffffff;strokeColor=#2D7600;" parent="1" vertex="1">
          <mxGeometry x="-830" y="550" width="30" height="60" as="geometry" />
        </mxCell>
        <mxCell id="UYaI8UpyeC8IPexVpfqV-69" value="" style="edgeStyle=orthogonalEdgeStyle;rounded=0;orthogonalLoop=1;jettySize=auto;html=1;" parent="1" source="UYaI8UpyeC8IPexVpfqV-71" target="UYaI8UpyeC8IPexVpfqV-73" edge="1">
          <mxGeometry relative="1" as="geometry" />
        </mxCell>
        <mxCell id="UYaI8UpyeC8IPexVpfqV-70" value="&lt;div&gt;requests information about&amp;nbsp;&lt;/div&gt;&lt;div&gt;data access requests&lt;/div&gt;" style="edgeLabel;html=1;align=center;verticalAlign=middle;resizable=0;points=[];" parent="UYaI8UpyeC8IPexVpfqV-69" vertex="1" connectable="0">
          <mxGeometry x="0.5709" relative="1" as="geometry">
            <mxPoint y="14" as="offset" />
          </mxGeometry>
        </mxCell>
        <mxCell id="UYaI8UpyeC8IPexVpfqV-71" value="REQUESTOR" style="shape=umlActor;verticalLabelPosition=bottom;verticalAlign=top;html=1;outlineConnect=0;fillColor=#0050EF;" parent="1" vertex="1">
          <mxGeometry x="-650" y="550" width="30" height="60" as="geometry" />
        </mxCell>
        <mxCell id="UYaI8UpyeC8IPexVpfqV-72" style="edgeStyle=orthogonalEdgeStyle;rounded=0;orthogonalLoop=1;jettySize=auto;html=1;entryX=0.5;entryY=0;entryDx=0;entryDy=0;" parent="1" source="UYaI8UpyeC8IPexVpfqV-73" target="UYaI8UpyeC8IPexVpfqV-75" edge="1">
          <mxGeometry relative="1" as="geometry">
            <mxPoint x="-719.9999999999998" y="920" as="targetPoint" />
          </mxGeometry>
        </mxCell>
        <mxCell id="UYaI8UpyeC8IPexVpfqV-73" value="&lt;div&gt;&lt;span style=&quot;background-color: initial;&quot;&gt;*Receives email with all links for ongoing requests.&lt;/span&gt;&lt;/div&gt;" style="ellipse;whiteSpace=wrap;html=1;" parent="1" vertex="1">
          <mxGeometry x="-858.75" y="720" width="278.75" height="50" as="geometry" />
        </mxCell>
        <mxCell id="UYaI8UpyeC8IPexVpfqV-74" style="edgeStyle=orthogonalEdgeStyle;rounded=0;orthogonalLoop=1;jettySize=auto;html=1;entryX=0.5;entryY=0;entryDx=0;entryDy=0;" parent="1" source="UYaI8UpyeC8IPexVpfqV-75" target="UYaI8UpyeC8IPexVpfqV-76" edge="1">
          <mxGeometry relative="1" as="geometry" />
        </mxCell>
        <mxCell id="UYaI8UpyeC8IPexVpfqV-75" value="&lt;div&gt;expiry for both parties after a time window.&lt;/div&gt;&lt;div&gt;DRT should let the requestor know about the expiry.&lt;/div&gt;" style="ellipse;whiteSpace=wrap;html=1;" parent="1" vertex="1">
          <mxGeometry x="-863.2099999999999" y="800" width="287.66" height="80" as="geometry" />
        </mxCell>
        <mxCell id="UYaI8UpyeC8IPexVpfqV-76" value="Deleting negotiation data from DRT doesn’t affect downloaded copies." style="rounded=0;whiteSpace=wrap;html=1;" parent="1" vertex="1">
          <mxGeometry x="-781.5699999999999" y="920" width="124.38" height="70" as="geometry" />
        </mxCell>
        <mxCell id="UYaI8UpyeC8IPexVpfqV-77" style="edgeStyle=orthogonalEdgeStyle;rounded=0;orthogonalLoop=1;jettySize=auto;html=1;exitX=1;exitY=0.5;exitDx=0;exitDy=0;" parent="1" source="UYaI8UpyeC8IPexVpfqV-79" edge="1">
          <mxGeometry relative="1" as="geometry">
            <mxPoint x="-550" y="40" as="targetPoint" />
            <mxPoint x="-660" y="40" as="sourcePoint" />
          </mxGeometry>
        </mxCell>
        <mxCell id="UYaI8UpyeC8IPexVpfqV-78" value="&lt;div&gt;Owner selects&lt;div&gt;&amp;nbsp;the questionnaire&lt;/div&gt;&lt;div&gt;&amp;nbsp;for data access, and,&amp;nbsp;&lt;/div&gt;&lt;div&gt;shares link (DS manager&amp;nbsp;&lt;/div&gt;&lt;div&gt;can provides the link) for&amp;nbsp;&lt;/div&gt;&lt;/div&gt;&lt;div&gt;questionnaire with a&amp;nbsp;&lt;/div&gt;&lt;div&gt;potential data requestor.&lt;/div&gt;" style="edgeLabel;html=1;align=center;verticalAlign=middle;resizable=0;points=[];" parent="UYaI8UpyeC8IPexVpfqV-77" connectable="0" vertex="1">
          <mxGeometry x="0.0226" y="-2" relative="1" as="geometry">
            <mxPoint as="offset" />
          </mxGeometry>
        </mxCell>
        <mxCell id="UYaI8UpyeC8IPexVpfqV-79" value="Questions written by the community in OCA package.&lt;div&gt;JSON file for each questionnaire.&lt;/div&gt;&lt;div&gt;A specific license file that is matched each questionnaire.&lt;/div&gt;" style="whiteSpace=wrap;html=1;fillColor=#e1d5e7;strokeColor=#FF3399;" parent="1" vertex="1">
          <mxGeometry x="-990" width="248.75" height="80" as="geometry" />
        </mxCell>
        <mxCell id="UYaI8UpyeC8IPexVpfqV-80" value="&lt;div style=&quot;&quot;&gt;1.&amp;nbsp;&lt;span style=&quot;background-color: initial;&quot;&gt;The system should support easy creation and management of these links, allowing owners to generate(or admin would do) and expire links as necessary.&lt;/span&gt;&lt;/div&gt;&lt;div style=&quot;&quot;&gt;&lt;span style=&quot;background-color: initial;&quot;&gt;&lt;br&gt;&lt;/span&gt;&lt;/div&gt;&lt;div style=&quot;&quot;&gt;2.&amp;nbsp;&lt;span style=&quot;background-color: initial;&quot;&gt;Enable owners to export negotiation data in case they want to move to a different Data Request Tracker host.(later development)&lt;/span&gt;&lt;/div&gt;&lt;div style=&quot;&quot;&gt;&lt;span style=&quot;background-color: initial;&quot;&gt;&lt;br&gt;&lt;/span&gt;&lt;/div&gt;&lt;div style=&quot;&quot;&gt;&lt;span style=&quot;background-color: initial;&quot;&gt;3.&amp;nbsp;&lt;/span&gt;&lt;span style=&quot;background-color: initial;&quot;&gt;Delete specific data request negotiation data from DRT.&lt;/span&gt;&lt;/div&gt;&lt;div style=&quot;&quot;&gt;&lt;span style=&quot;background-color: initial;&quot;&gt;&lt;br&gt;&lt;/span&gt;&lt;/div&gt;&lt;div style=&quot;&quot;&gt;&lt;span style=&quot;background-color: initial;&quot;&gt;4. The owner&lt;/span&gt;&lt;span style=&quot;background-color: initial;&quot;&gt;&amp;nbsp;can ask DRT for all operating questionnaire links.&lt;/span&gt;&lt;/div&gt;&lt;div style=&quot;&quot;&gt;&lt;span style=&quot;background-color: initial;&quot;&gt;&lt;br&gt;&lt;/span&gt;&lt;/div&gt;&lt;div style=&quot;&quot;&gt;&lt;span style=&quot;background-color: initial;&quot;&gt;5.&amp;nbsp;&lt;/span&gt;&lt;span style=&quot;background-color: initial;&quot;&gt;The owner can retire data requests, select completed ones to create licenses, and&lt;/span&gt;&lt;span style=&quot;background-color: initial;&quot;&gt;&amp;nbsp;archive or delete completed requests while still retaining&amp;nbsp;&lt;/span&gt;&lt;/div&gt;&lt;div&gt;summary statistics for internal records (e.g., how many requests were made).&lt;br&gt;&lt;/div&gt;&lt;div&gt;&lt;br&gt;&lt;/div&gt;&lt;div&gt;6.&amp;nbsp;&lt;span style=&quot;background-color: initial;&quot;&gt;The owner can track data request history and stats. Requests expire after N days, with notifications allowing extensions.&lt;/span&gt;&lt;/div&gt;" style="whiteSpace=wrap;html=1;aspect=fixed;fillColor=#cdeb8b;strokeColor=#36393d;" parent="1" vertex="1">
          <mxGeometry x="-690.25" y="120" width="330.5" height="330.5" as="geometry" />
        </mxCell>
        <mxCell id="UYaI8UpyeC8IPexVpfqV-81" value="" style="edgeStyle=orthogonalEdgeStyle;rounded=0;orthogonalLoop=1;jettySize=auto;html=1;exitX=0.5;exitY=1;exitDx=0;exitDy=0;" parent="1" source="UYaI8UpyeC8IPexVpfqV-36" target="UYaI8UpyeC8IPexVpfqV-83" edge="1">
          <mxGeometry relative="1" as="geometry">
            <mxPoint x="191.46" y="460" as="targetPoint" />
            <mxPoint x="192" y="320" as="sourcePoint" />
          </mxGeometry>
        </mxCell>
        <mxCell id="UYaI8UpyeC8IPexVpfqV-82" style="edgeStyle=orthogonalEdgeStyle;rounded=0;orthogonalLoop=1;jettySize=auto;html=1;exitX=0.5;exitY=1;exitDx=0;exitDy=0;entryX=0.5;entryY=0;entryDx=0;entryDy=0;" parent="1" source="UYaI8UpyeC8IPexVpfqV-83" target="UYaI8UpyeC8IPexVpfqV-84" edge="1">
          <mxGeometry relative="1" as="geometry" />
        </mxCell>
        <mxCell id="UYaI8UpyeC8IPexVpfqV-83" value="Enter email and click on the request button" style="whiteSpace=wrap;html=1;aspect=fixed;fillColor=#cce5ff;strokeColor=#36393d;" parent="1" vertex="1">
          <mxGeometry x="158.75" y="290" width="70" height="70" as="geometry" />
        </mxCell>
        <mxCell id="UYaI8UpyeC8IPexVpfqV-84" value="&lt;div style=&quot;font-size: 11px; text-wrap: nowrap;&quot;&gt;&lt;div&gt;DRT will verify the&amp;nbsp;&lt;/div&gt;&lt;div&gt;requestor&amp;nbsp;&lt;span style=&quot;background-color: initial;&quot;&gt;email with OTP.&lt;/span&gt;&lt;/div&gt;&lt;div&gt;&lt;br&gt;&lt;/div&gt;&lt;div&gt;DRT will generate a&amp;nbsp;&lt;span style=&quot;background-color: initial;&quot;&gt;Link for&lt;/span&gt;&lt;/div&gt;&lt;div&gt;&amp;nbsp;requestor and email&lt;span style=&quot;background-color: initial;&quot;&gt;&amp;nbsp;it to them.&lt;/span&gt;&lt;/div&gt;&lt;div&gt;&lt;br&gt;&lt;/div&gt;&lt;div&gt;DRT will also save the&amp;nbsp;&lt;/div&gt;&lt;div&gt;requestor&#39;s link and email in&amp;nbsp;&lt;/div&gt;&lt;div&gt;the NLink table.&lt;/div&gt;&lt;/div&gt;" style="whiteSpace=wrap;html=1;aspect=fixed;fillColor=#ffcccc;strokeColor=#36393d;" parent="1" vertex="1">
          <mxGeometry x="117.25" y="387.5" width="150" height="150" as="geometry" />
        </mxCell>
        <mxCell id="UYaI8UpyeC8IPexVpfqV-85" style="edgeStyle=orthogonalEdgeStyle;rounded=0;orthogonalLoop=1;jettySize=auto;html=1;entryX=0.586;entryY=-0.028;entryDx=0;entryDy=0;entryPerimeter=0;" parent="1" source="UYaI8UpyeC8IPexVpfqV-84" target="UYaI8UpyeC8IPexVpfqV-26" edge="1">
          <mxGeometry relative="1" as="geometry" />
        </mxCell>
        <mxCell id="UYaI8UpyeC8IPexVpfqV-86" style="edgeStyle=orthogonalEdgeStyle;rounded=0;orthogonalLoop=1;jettySize=auto;html=1;entryX=0.5;entryY=0;entryDx=0;entryDy=0;" parent="1" source="UYaI8UpyeC8IPexVpfqV-88" target="UYaI8UpyeC8IPexVpfqV-91" edge="1">
          <mxGeometry relative="1" as="geometry" />
        </mxCell>
        <mxCell id="UYaI8UpyeC8IPexVpfqV-87" value="&lt;span style=&quot;background-color: rgb(251, 251, 251);&quot;&gt;Requestor&#39;s email address and&lt;/span&gt;&lt;div&gt;&lt;span style=&quot;background-color: rgb(251, 251, 251);&quot;&gt;&amp;nbsp;OTP will be stored in the Requestor table.&lt;/span&gt;&lt;/div&gt;" style="edgeLabel;html=1;align=center;verticalAlign=middle;resizable=0;points=[];" parent="UYaI8UpyeC8IPexVpfqV-86" connectable="0" vertex="1">
          <mxGeometry x="-0.0969" relative="1" as="geometry">
            <mxPoint as="offset" />
          </mxGeometry>
        </mxCell>
        <mxCell id="UYaI8UpyeC8IPexVpfqV-88" value="DRT will ask for email verification using OTP." style="whiteSpace=wrap;html=1;aspect=fixed;fillColor=#ffcccc;strokeColor=#36393d;" parent="1" vertex="1">
          <mxGeometry x="144.5" y="1020" width="90" height="90" as="geometry" />
        </mxCell>
        <mxCell id="UYaI8UpyeC8IPexVpfqV-89" style="edgeStyle=orthogonalEdgeStyle;rounded=0;orthogonalLoop=1;jettySize=auto;html=1;entryX=0.5;entryY=0;entryDx=0;entryDy=0;" parent="1" source="UYaI8UpyeC8IPexVpfqV-91" target="UYaI8UpyeC8IPexVpfqV-37" edge="1">
          <mxGeometry relative="1" as="geometry" />
        </mxCell>
        <mxCell id="UYaI8UpyeC8IPexVpfqV-90" value="&lt;div&gt;&lt;span style=&quot;background-color: initial;&quot;&gt;Once submitted, the form becomes&lt;/span&gt;&lt;span style=&quot;background-color: initial;&quot;&gt;&amp;nbsp;&lt;/span&gt;&lt;strong style=&quot;background-color: initial;&quot;&gt;read-only&lt;/strong&gt;&lt;span style=&quot;background-color: initial;&quot;&gt;&amp;nbsp;&lt;/span&gt;&lt;span style=&quot;background-color: initial;&quot;&gt;for the requestor.&lt;/span&gt;&lt;br&gt;&lt;/div&gt;&lt;div&gt;&lt;div style=&quot;background-color: rgb(251, 251, 251);&quot;&gt;&amp;nbsp;the negotiation will change from&amp;nbsp;&lt;strong&gt;State 1 (requestor_open)&lt;br&gt;&lt;/strong&gt;to&amp;nbsp;&lt;strong&gt;State 2 (owner_open)&lt;/strong&gt;.&lt;/div&gt;&lt;/div&gt;" style="edgeLabel;html=1;align=center;verticalAlign=middle;resizable=0;points=[];" parent="UYaI8UpyeC8IPexVpfqV-89" connectable="0" vertex="1">
          <mxGeometry x="0.0264" y="1" relative="1" as="geometry">
            <mxPoint x="-2" y="-6" as="offset" />
          </mxGeometry>
        </mxCell>
        <mxCell id="UYaI8UpyeC8IPexVpfqV-91" value="When a data request is submitted, DRT emails the data owner to review the request." style="whiteSpace=wrap;html=1;aspect=fixed;fillColor=#ffcccc;strokeColor=#36393d;" parent="1" vertex="1">
          <mxGeometry x="140.25" y="1170" width="100" height="100" as="geometry" />
        </mxCell>
        <mxCell id="UYaI8UpyeC8IPexVpfqV-92" value="&lt;font color=&quot;#67ab9f&quot;&gt;Confirm requestor&#39;s email address the first time&lt;/font&gt;&lt;div&gt;&lt;span style=&quot;background-color: initial;&quot;&gt;&lt;font color=&quot;#67ab9f&quot;&gt;&amp;nbsp;to make sure it&#39;s correct and avoid attack.&lt;/font&gt;&lt;/span&gt;&lt;/div&gt;" style="text;html=1;align=center;verticalAlign=middle;resizable=0;points=[];autosize=1;strokeColor=none;fillColor=none;" parent="1" vertex="1">
          <mxGeometry x="273.75" y="430" width="270" height="40" as="geometry" />
        </mxCell>
        <mxCell id="UYaI8UpyeC8IPexVpfqV-93" value="&lt;div&gt;when the license comes up there are some prefilled.&lt;/div&gt;&lt;div&gt;what is the risk of generating a license without the owner&#39;s name and the owner having to autofill it?&lt;/div&gt;&lt;div&gt;In the table where we pick which questionnaire, we need to put license_id with the&amp;nbsp;&lt;span style=&quot;background-color: initial;&quot;&gt;questionnaire link.&lt;/span&gt;&lt;/div&gt;&lt;div&gt;then in the license library, we can have the license with a questionnaire and another license with the same questionnaire.&lt;/div&gt;&lt;div&gt;the only difference is the header of the license.&lt;/div&gt;&lt;div&gt;the owner picks the same license for the dataset. The requestor has not changed the license at all.&lt;/div&gt;&lt;div&gt;&lt;br&gt;&lt;/div&gt;&lt;div&gt;Completed requests should be archived to keep the active request list manageable.&amp;nbsp;&lt;/div&gt;&lt;div&gt;This can be done automatically after the license has been generated after the acceptance (or by the owner or admin!).&lt;/div&gt;&lt;div&gt;&lt;br&gt;&lt;/div&gt;&lt;div&gt;can the owner reopen a negotiation? or resubmit?&lt;/div&gt;&lt;div&gt;&lt;br&gt;&lt;/div&gt;&lt;div&gt;Store all negotiation data and submission details in &lt;strong&gt;JSON format&lt;/strong&gt; for easy portability.&lt;br&gt;&lt;/div&gt;" style="text;html=1;align=center;verticalAlign=middle;resizable=0;points=[];autosize=1;strokeColor=none;fillColor=none;" parent="1" vertex="1">
          <mxGeometry x="1495" y="157.5" width="660" height="200" as="geometry" />
        </mxCell>
        <mxCell id="UYaI8UpyeC8IPexVpfqV-94" value="&lt;div&gt;&lt;font color=&quot;#ff0000&quot;&gt;The administrator configures the DRT to be able to cache data from the DRT-DS. (&lt;/font&gt;&lt;span style=&quot;background-color: initial;&quot;&gt;&lt;font color=&quot;#ff0000&quot;&gt;design the part of the DRT that connects to the DS and copies the information to the cache.&lt;/font&gt;&lt;/span&gt;&lt;span style=&quot;color: rgb(255, 0, 0); background-color: initial;&quot;&gt;)&lt;/span&gt;&lt;/div&gt;&lt;div&gt;&lt;font color=&quot;#ff0000&quot;&gt;What frequency?&lt;/font&gt;&lt;/div&gt;&lt;div&gt;&lt;font color=&quot;#ff0000&quot;&gt;Take advantage of Git hooks etc. to trigger events?&lt;br&gt;&lt;/font&gt;&lt;/div&gt;" style="text;whiteSpace=wrap;html=1;" parent="1" vertex="1">
          <mxGeometry x="-340" y="120" width="300" height="100" as="geometry" />
        </mxCell>
        <mxCell id="UYaI8UpyeC8IPexVpfqV-95" value="&lt;font color=&quot;#67ab9f&quot;&gt;Include features like automated reminders for pending requests&lt;/font&gt;&lt;div&gt;&lt;font color=&quot;#67ab9f&quot;&gt;&amp;nbsp;and expiration notifications to avoid stale requests.&lt;/font&gt;&lt;/div&gt;&lt;div&gt;&lt;font color=&quot;#67ab9f&quot;&gt;(The owner can adjust the frequency of receiving the reminder.)&amp;nbsp;&lt;/font&gt;&lt;/div&gt;" style="text;html=1;align=center;verticalAlign=middle;resizable=0;points=[];autosize=1;strokeColor=none;fillColor=none;" parent="1" vertex="1">
          <mxGeometry x="237.25" y="1340" width="360" height="60" as="geometry" />
        </mxCell>
        <mxCell id="UYaI8UpyeC8IPexVpfqV-96" value="&lt;div style=&quot;font-size: 11px;&quot;&gt;&lt;br&gt;&lt;/div&gt;" style="text;html=1;align=center;verticalAlign=middle;resizable=0;points=[];autosize=1;strokeColor=none;fillColor=none;" parent="1" vertex="1">
          <mxGeometry x="-405" y="-55" width="20" height="30" as="geometry" />
        </mxCell>
        <mxCell id="UYaI8UpyeC8IPexVpfqV-97" value="&lt;div&gt;&lt;font color=&quot;#67ab9f&quot;&gt;The token-based URL ensures requestors&lt;/font&gt;&lt;/div&gt;&lt;div&gt;&lt;font color=&quot;#67ab9f&quot;&gt;&amp;nbsp;can access the questionnaire only for a limited period.&lt;br&gt;&lt;/font&gt;&lt;/div&gt;&lt;div&gt;&lt;font color=&quot;#67ab9f&quot;&gt;&lt;strong&gt;JWT (JSON Web Token)&lt;/strong&gt;&amp;nbsp;for secure URL generation.&lt;/font&gt;&lt;/div&gt;" style="text;html=1;align=center;verticalAlign=middle;resizable=0;points=[];autosize=1;strokeColor=none;fillColor=none;" parent="1" vertex="1">
          <mxGeometry x="273.75" y="180" width="310" height="60" as="geometry" />
        </mxCell>
        <mxCell id="UYaI8UpyeC8IPexVpfqV-98" value="&lt;div style=&quot;text-align: left;&quot;&gt;&lt;span style=&quot;color: rgb(103, 171, 159); background-color: initial;&quot;&gt;Send a&amp;nbsp;&lt;/span&gt;&lt;strong style=&quot;color: rgb(103, 171, 159); background-color: initial;&quot;&gt;confirmation email&lt;/strong&gt;&lt;span style=&quot;color: rgb(103, 171, 159); background-color: initial;&quot;&gt;&amp;nbsp;to the requestor with&lt;/span&gt;&lt;span style=&quot;color: rgb(103, 171, 159); background-color: initial;&quot;&gt;&amp;nbsp;a copy of&amp;nbsp;&lt;/span&gt;&lt;span style=&quot;color: rgb(103, 171, 159); background-color: initial;&quot;&gt;their&amp;nbsp;&lt;/span&gt;&lt;/div&gt;&lt;div style=&quot;text-align: left;&quot;&gt;&lt;span style=&quot;background-color: initial;&quot;&gt;&lt;font color=&quot;#67ab9f&quot;&gt;submission for their records.&lt;/font&gt;&lt;/span&gt;&lt;/div&gt;&lt;div style=&quot;text-align: left;&quot;&gt;&lt;span style=&quot;background-color: initial;&quot;&gt;&lt;font color=&quot;#67ab9f&quot;&gt;&lt;br&gt;&lt;/font&gt;&lt;/span&gt;&lt;/div&gt;&lt;div style=&quot;text-align: left;&quot;&gt;&lt;span style=&quot;color: rgb(103, 171, 159); background-color: initial;&quot;&gt;Lock the form once it’s officially submitted.&lt;/span&gt;&lt;br&gt;&lt;/div&gt;" style="text;html=1;align=center;verticalAlign=middle;resizable=0;points=[];autosize=1;strokeColor=none;fillColor=none;" parent="1" vertex="1">
          <mxGeometry x="222.75" y="880" width="370" height="70" as="geometry" />
        </mxCell>
        <mxCell id="UYaI8UpyeC8IPexVpfqV-99" value="&lt;span style=&quot;color: rgb(103, 171, 159);&quot;&gt;Invalid forms should return an error message to the requestor.&lt;/span&gt;" style="text;html=1;align=center;verticalAlign=middle;resizable=0;points=[];autosize=1;strokeColor=none;fillColor=none;" parent="1" vertex="1">
          <mxGeometry x="222.75" y="740" width="350" height="30" as="geometry" />
        </mxCell>
        <mxCell id="UYaI8UpyeC8IPexVpfqV-100" value="&lt;font color=&quot;#cc6600&quot;&gt;Assuming we have the license generated and DRT will only send it to parties!&lt;/font&gt;&lt;div&gt;&lt;font color=&quot;#cc6600&quot;&gt;Should we store the generated license in the negotiation table?&lt;/font&gt;&lt;/div&gt;&lt;div&gt;&lt;font color=&quot;#cc6600&quot;&gt;Negotiation table:&lt;br&gt;The last chunk would be the decision,&lt;/font&gt;&lt;/div&gt;&lt;div&gt;&lt;font color=&quot;#cc6600&quot;&gt;&amp;nbsp;if it was accepted another chunk for the license which would be the field&amp;nbsp;&lt;/font&gt;&lt;/div&gt;&lt;div&gt;&lt;font color=&quot;#cc6600&quot;&gt;in markdown text, then be parsed by sth to turn it to pdf to look good.&lt;/font&gt;&lt;/div&gt;&lt;div&gt;&lt;font color=&quot;#cc6600&quot;&gt;Is the License in this table better?&lt;/font&gt;&lt;/div&gt;" style="text;html=1;align=center;verticalAlign=middle;resizable=0;points=[];autosize=1;strokeColor=none;fillColor=none;" parent="1" vertex="1">
          <mxGeometry x="1590" y="422" width="430" height="110" as="geometry" />
        </mxCell>
      </root>
    </mxGraphModel>
  </diagram>
</mxfile>
